<svg width="280" height="55" viewBox="0 0 521 93" fill="none" xmlns="http://www.w3.org/2000/svg">
<path d="M55.8617 82.8497C49.5175 89.1117 41.7727 92.2428 32.6272 92.2428C23.4817 92.2428 15.7369 89.1117 9.39268 82.8497C3.13089 76.5052 0 68.7601 0 59.6142C0 50.4683 3.13089 42.7643 9.39268 36.5022C15.7369 30.1578 23.4817 26.9855 32.6272 26.9855C41.7727 26.9855 49.5175 30.1578 55.8617 36.5022C62.2059 42.7643 65.378 50.4683 65.378 59.6142C65.378 68.7601 62.2059 76.5052 55.8617 82.8497ZM20.6392 71.8499C23.8525 75.0633 27.8485 76.67 32.6272 76.67C37.4059 76.67 41.4019 75.0633 44.6152 71.8499C47.8285 68.6365 49.4351 64.5579 49.4351 59.6142C49.4351 54.6704 47.8285 50.5919 44.6152 47.3784C41.4019 44.165 37.4059 42.5583 32.6272 42.5583C27.8485 42.5583 23.8525 44.165 20.6392 47.3784C17.5083 50.5919 15.9428 54.6704 15.9428 59.6142C15.9428 64.5579 17.5083 68.6365 20.6392 71.8499Z" fill="white"/>
<path d="M207.182 26.0096C214.118 26.0096 219.827 28.3356 224.31 32.9877C228.877 37.6398 231.161 44.0682 231.161 52.2729V91.2237H214.795V54.3029C214.795 50.0737 213.653 46.8595 211.369 44.6603C209.085 42.3765 206.04 41.2347 202.234 41.2347C198.005 41.2347 194.622 42.5457 192.085 45.1678C189.547 47.7899 188.279 51.7231 188.279 56.9673V91.2237H171.912V27.7858H188.279V34.8909C192.254 28.97 198.555 26.0096 207.182 26.0096Z" fill="white"/>
<path d="M245.643 20.1733C242.936 20.1733 240.568 19.2005 238.538 17.2551C236.593 15.2251 235.62 12.8568 235.62 10.1501C235.62 7.44339 236.593 5.07504 238.538 3.04502C240.568 1.01501 242.936 0 245.643 0C248.434 0 250.802 1.01501 252.748 3.04502C254.778 5.07504 255.792 7.44339 255.792 10.1501C255.792 12.8568 254.778 15.2251 252.748 17.2551C250.802 19.2005 248.434 20.1733 245.643 20.1733ZM237.523 91.2237V27.7858H253.889V91.2237H237.523Z" fill="white"/>
<path d="M292.721 93C283.163 93 275.17 89.7858 268.742 83.3574C262.399 76.9291 259.227 68.9782 259.227 59.5048C259.227 50.0314 262.399 42.0805 268.742 35.6521C275.17 29.2237 283.163 26.0096 292.721 26.0096C298.895 26.0096 304.52 27.4898 309.594 30.4502C314.669 33.4106 318.518 37.3861 321.14 42.3765L307.057 50.6235C305.788 48.0014 303.843 45.9291 301.221 44.4065C298.684 42.884 295.808 42.1228 292.594 42.1228C287.688 42.1228 283.628 43.7722 280.414 47.0709C277.2 50.2851 275.593 54.4297 275.593 59.5048C275.593 64.4952 277.2 68.6398 280.414 71.9386C283.628 75.1528 287.688 76.7599 292.594 76.7599C295.892 76.7599 298.81 76.0409 301.348 74.603C303.97 73.0805 305.915 71.0082 307.184 68.3861L321.393 76.5061C318.602 81.4966 314.669 85.5143 309.594 88.5593C304.52 91.5198 298.895 93 292.721 93Z" fill="white"/>
<path d="M378.664 83.3574C372.152 89.7858 364.201 93 354.813 93C345.424 93 337.474 89.7858 330.961 83.3574C324.533 76.8445 321.319 68.8936 321.319 59.5048C321.319 50.116 324.533 42.2074 330.961 35.779C337.474 29.266 345.424 26.0096 354.813 26.0096C364.201 26.0096 372.152 29.266 378.664 35.779C385.177 42.2074 388.433 50.116 388.433 59.5048C388.433 68.8936 385.177 76.8445 378.664 83.3574ZM342.506 72.0655C345.805 75.3643 349.907 77.0136 354.813 77.0136C359.718 77.0136 363.821 75.3643 367.119 72.0655C370.418 68.7667 372.067 64.5798 372.067 59.5048C372.067 54.4297 370.418 50.2428 367.119 46.9441C363.821 43.6453 359.718 41.9959 354.813 41.9959C349.907 41.9959 345.805 43.6453 342.506 46.9441C339.292 50.2428 337.685 54.4297 337.685 59.5048C337.685 64.5798 339.292 68.7667 342.506 72.0655Z" fill="white"/>
<path d="M430.776 26.0096C437.712 26.0096 443.421 28.3356 447.904 32.9877C452.471 37.6398 454.755 44.0682 454.755 52.2729V91.2237H438.389V54.3029C438.389 50.0737 437.247 46.8595 434.963 44.6603C432.679 42.3765 429.635 41.2347 425.828 41.2347C421.599 41.2347 418.216 42.5457 415.679 45.1678C413.141 47.7899 411.873 51.7231 411.873 56.9673V91.2237H395.506V27.7858H411.873V34.8909C415.848 28.97 422.149 26.0096 430.776 26.0096Z" fill="white"/>
<path d="M497.021 26.0096C503.957 26.0096 509.666 28.3356 514.149 32.9877C518.716 37.6398 521 44.0682 521 52.2729V91.2237H504.634V54.3029C504.634 50.0737 503.492 46.8595 501.208 44.6603C498.925 42.3765 495.88 41.2347 492.074 41.2347C487.845 41.2347 484.461 42.5457 481.924 45.1678C479.387 47.7899 478.118 51.7231 478.118 56.9673V91.2237H461.752V27.7858H478.118V34.8909C482.093 28.97 488.394 26.0096 497.021 26.0096Z" fill="white"/>
<path d="M85.3835 77.9395V92.3547H91.5849L118.07 63.7175L108.788 53.8035L85.3835 77.9395Z" fill="url(#paint0_radial_786_54)"/>
<path d="M163.655 46.5967C163.655 30.0025 138.011 13.7446 117.899 43.9151L127.239 53.8035C139.52 38.0486 150.038 40.2275 150.038 49.7814V77.9395L163.655 92.3547V46.5967Z" fill="url(#paint1_radial_786_54)"/>
<path d="M71.9752 47.6025V92.3547H85.3835V77.9395V49.7814C85.3835 40.5622 94.2665 37.8804 102.982 47.6025L108.788 53.8035L118.07 63.7175L144.883 92.3547H163.655L150.038 77.9395L127.239 53.8035L117.899 43.9151C99.4623 18.1585 71.9752 26.8743 71.9752 47.6025Z" fill="url(#paint2_radial_786_54)"/>
<path d="M85.3835 77.9395V92.3547H91.5849L118.07 63.7175L108.788 53.8035L85.3835 77.9395Z" fill="url(#paint3_linear_786_54)"/>
<defs>
<radialGradient id="paint0_radial_786_54" cx="0" cy="0" r="1" gradientUnits="userSpaceOnUse" gradientTransform="translate(78.5 33) rotate(34.9237) scale(103.059 144.664)">
<stop stop-color="white"/>
<stop offset="1" stop-color="white"/>
</radialGradient>
<radialGradient id="paint1_radial_786_54" cx="0" cy="0" r="1" gradientUnits="userSpaceOnUse" gradientTransform="translate(78.5 33) rotate(34.9237) scale(103.059 144.664)">
<stop stop-color="white"/>
<stop offset="1" stop-color="white"/>
</radialGradient>
<radialGradient id="paint2_radial_786_54" cx="0" cy="0" r="1" gradientUnits="userSpaceOnUse" gradientTransform="translate(78.5 33) rotate(34.9237) scale(103.059 144.664)">
<stop stop-color="white"/>
<stop offset="1" stop-color="white"/>
</radialGradient>
<linearGradient id="paint3_linear_786_54" x1="114.5" y1="59.5" x2="100" y2="74" gradientUnits="userSpaceOnUse">
<stop stop-opacity="0.4"/>
<stop offset="1" stop-opacity="0"/>
</linearGradient>
</defs>
</svg>
