<?xml version="1.0" encoding="utf-8"?>
<!-- Generator: Adobe Illustrator 27.7.0, SVG Export Plug-In . SVG Version: 6.00 Build 0)  -->
<svg version="1.1" id="Layer_1" xmlns="http://www.w3.org/2000/svg" xmlns:xlink="http://www.w3.org/1999/xlink" x="0px" y="0px"
	viewBox="0 0 1000 100" style="enable-background:new 0 0 277.37 92.66;" xml:space="preserve">
<style type="text/css">
	.st0{fill:#FFFFFF;}
	.st1{fill-rule:evenodd;clip-rule:evenodd;fill:url(#SVGID_1_);}
</style>
<g>
	<g>
		<g>
			<path class="st0" d="M141.23,27.62c-0.78-0.99-2.19-1.63-3.37-1.63c-1.18,0-2.65,0.4-2.65,1.9c0,1.26,1.12,1.66,2.91,2.22
				c2.57,0.83,5.88,1.93,5.88,5.7c0,4.36-3.5,6.31-7.25,6.31c-2.7,0-5.43-0.99-7.09-2.73l3-3.05c0.91,1.15,2.59,2.01,4.09,2.01
				c1.39,0,2.62-0.53,2.62-2.06c0-1.44-1.44-1.9-3.93-2.7c-2.41-0.78-4.84-2.01-4.84-5.43c0-4.2,3.8-5.94,7.33-5.94
				c2.14,0,4.55,0.8,6.21,2.33L141.23,27.62z"/>
			<path class="st0" d="M147.59,42.14V22.19h4.85v19.94H147.59z"/>
			<path class="st0" d="M164.5,42.14h-7.94V22.19h7.94c3.1,0,6.79,1.1,6.79,5.13c0,2.2-1.32,3.66-3.27,4.31v0.06
				c2.28,0.39,4.09,2.03,4.09,4.65C172.1,40.67,168.3,42.14,164.5,42.14z M163.57,26.02h-2.37v4.11h2.59c1.8,0,2.84-0.76,2.84-2.17
				C166.64,26.62,165.59,26.02,163.57,26.02z M163.88,33.69h-2.68v4.56h2.7c1.52,0,3.38-0.42,3.38-2.36
				C167.28,34.22,165.93,33.69,163.88,33.69z"/>
			<path class="st0" d="M185.02,42.13c-5.82,0-10.18-4.06-10.18-9.99c0-6.06,4.49-9.93,10.26-9.93c2.64,0,5.5,0.96,7.08,2.78
				l-3.1,3.1c-0.85-1.17-2.38-1.74-3.82-1.74c-3.18,0-5.45,2.46-5.45,5.8c0,3.44,2.22,5.8,5.37,5.8c1.79,0,3.21-0.8,4.01-1.92
				l3.18,2.99C190.71,40.93,188.2,42.13,185.02,42.13z"/>
			<path class="st0" d="M210.45,42.14l-1.55-3.92h-7.72l-1.46,3.92h-5.24l8.37-19.94h4.68l8.28,19.94H210.45z M205.09,27.52
				l-2.53,6.84h5.01L205.09,27.52z"/>
		</g>
		<g>
			<path class="st0" d="M145.3,66.53c0.99-0.99,1.69-2.12,2.1-3.38h1.46c-0.45,1.64-1.3,3.1-2.57,4.37
				c-1.95,1.95-4.3,2.92-7.05,2.92c-2.75,0-5.09-0.97-7.05-2.92c-1.95-1.96-2.92-4.3-2.92-7.05c0.01-2.76,0.99-5.12,2.95-7.05
				c1.94-1.95,4.28-2.92,7.04-2.92c2.76,0,5.12,0.97,7.05,2.92c1.27,1.26,2.12,2.72,2.57,4.37h-1.48c-0.41-1.26-1.11-2.38-2.1-3.38
				c-1.68-1.66-3.69-2.5-6.06-2.5s-4.4,0.84-6.06,2.5c-1.66,1.68-2.5,3.69-2.5,6.06s0.84,4.39,2.5,6.06c1.68,1.66,3.69,2.5,6.06,2.5
				S143.62,68.19,145.3,66.53z"/>
			<path class="st0" d="M167.91,53.42c1.95,1.95,2.92,4.3,2.9,7.04c0,2.74-0.97,5.09-2.92,7.04s-4.3,2.92-7.04,2.92
				s-5.09-0.97-7.04-2.92s-2.92-4.3-2.92-7.04c0.01-2.74,0.99-5.09,2.93-7.04s4.3-2.92,7.04-2.92S165.97,51.47,167.91,53.42z
				 M166.91,66.51c1.66-1.68,2.5-3.69,2.5-6.05s-0.84-4.38-2.5-6.05c-1.68-1.66-3.69-2.5-6.05-2.5c-2.36,0-4.38,0.84-6.05,2.5
				c-1.66,1.68-2.5,3.69-2.5,6.05s0.84,4.38,2.5,6.05c1.68,1.66,3.69,2.5,6.05,2.5C163.23,69.01,165.24,68.17,166.91,66.51z"/>
			<path class="st0" d="M173.48,60.61c0.04-2.79,0.94-5.17,2.68-7.14c1.75-1.97,3.85-2.96,6.32-2.96s4.58,0.99,6.33,2.97
				c1.75,1.97,2.64,4.36,2.67,7.16v9.83h-1.39v-9.83c-0.03-2.37-0.78-4.39-2.26-6.06s-3.26-2.5-5.34-2.5
				c-2.08,0-3.87,0.83-5.35,2.49c-1.47,1.67-2.23,3.67-2.27,6.03v9.87h-1.39V60.61z"/>
			<path class="st0" d="M194.23,60.61c0.04-2.79,0.94-5.17,2.68-7.14c1.75-1.97,3.85-2.96,6.32-2.96s4.58,0.99,6.33,2.97
				c1.75,1.97,2.64,4.36,2.67,7.16v9.83h-1.39v-9.83c-0.03-2.37-0.78-4.39-2.26-6.06s-3.26-2.5-5.34-2.5s-3.87,0.83-5.35,2.49
				c-1.47,1.67-2.23,3.67-2.27,6.03v9.87h-1.39V60.61z"/>
			<path class="st0" d="M216.28,57.88c-0.24,0.8-0.37,1.67-0.37,2.57c0,2.37,0.84,4.39,2.51,6.07c1.68,1.67,3.7,2.51,6.07,2.51
				s4.39-0.84,6.07-2.51c0.96-0.96,1.64-2.03,2.05-3.21h1.48c-0.45,1.56-1.3,2.97-2.53,4.2c-1.95,1.95-4.31,2.93-7.06,2.93
				s-5.11-0.98-7.06-2.93s-2.93-4.31-2.93-7.06c0.01-2.75,0.99-5.11,2.94-7.06s4.31-2.93,7.06-2.93c2.75,0,5.11,0.98,7.06,2.93
				c1.31,1.31,2.19,2.8,2.61,4.46L216.28,57.88z M232.14,56.54c-0.39-0.77-0.92-1.49-1.59-2.15c-1.68-1.67-3.7-2.51-6.07-2.51
				s-4.39,0.84-6.07,2.51c-0.66,0.66-1.19,1.38-1.59,2.15H232.14z"/>
			<path class="st0" d="M252.33,66.53c0.99-0.99,1.69-2.13,2.1-3.39h1.46c-0.45,1.64-1.3,3.1-2.57,4.38
				c-1.95,1.95-4.31,2.93-7.06,2.93s-5.09-0.98-7.06-2.93c-1.95-1.96-2.93-4.31-2.93-7.06c0.01-2.76,0.99-5.12,2.95-7.06
				c1.94-1.95,4.28-2.93,7.04-2.93s5.12,0.98,7.06,2.93c1.27,1.26,2.13,2.72,2.57,4.38h-1.48c-0.41-1.26-1.11-2.38-2.1-3.39
				c-1.68-1.67-3.7-2.51-6.07-2.51s-4.4,0.84-6.07,2.51c-1.67,1.68-2.51,3.7-2.51,6.07s0.84,4.39,2.51,6.07
				c1.68,1.67,3.7,2.51,6.07,2.51S250.65,68.2,252.33,66.53z"/>
			<path class="st0" d="M259.92,52.03v8.79c0,2.25,0.78,4.16,2.36,5.73c1.59,1.58,3.5,2.37,5.73,2.37c0.3,0,0.59-0.01,0.88-0.04
				v1.51c-0.29,0.03-0.59,0.04-0.89,0.04c-2.65,0-4.91-0.93-6.79-2.8c-1.88-1.88-2.81-4.16-2.8-6.82V48.16h1.51v2.36h8.97v1.51
				H259.92z"/>
		</g>
	</g>
	<g>
		<linearGradient id="SVGID_1_" gradientUnits="userSpaceOnUse" x1="82.9046" y1="84.9614" x2="40.6254" y2="11.7317">
			<stop  offset="0" style="stop-color:#437DC0"/>
			<stop  offset="1" style="stop-color:#91D1BB"/>
		</linearGradient>
		<path class="st1" d="M110.44,56.5c0.5-0.5,0.51-1.31,0.01-1.81c-0.25-0.26-0.59-0.38-0.93-0.38l-0.61-2.38
			c0.11-0.05,0.2-0.11,0.29-0.2c0.23-0.23,0.32-0.54,0.27-0.83l7-4.03c0.75,0.68,1.92,0.66,2.65-0.06c0.76-0.75,0.76-1.97,0.01-2.72
			c-0.75-0.76-1.97-0.76-2.72-0.01c-0.63,0.63-0.74,1.59-0.31,2.33l-6.9,3.98c-0.37-0.36-0.96-0.36-1.33,0.01
			c-0.37,0.37-0.37,0.97-0.01,1.34c0.13,0.13,0.29,0.22,0.46,0.26l0.64,2.47c-0.11,0.06-0.21,0.13-0.31,0.22
			c-0.5,0.5-0.51,1.31-0.01,1.81C109.13,57,109.94,57,110.44,56.5L110.44,56.5z M102.66,63.83c0.55-0.4,1.32-0.28,1.72,0.27
			c0.4,0.55,0.28,1.32-0.27,1.72c-0.55,0.4-1.32,0.28-1.72-0.27C102,65,102.11,64.23,102.66,63.83L102.66,63.83z M11.49,58.54
			c0.69-0.69,0.69-1.81,0-2.49c-0.69-0.69-1.81-0.69-2.49,0c-0.69,0.69-0.69,1.81,0,2.49C9.68,59.23,10.8,59.23,11.49,58.54
			L11.49,58.54z M61.75,9.54c0.55-0.4,1.32-0.28,1.72,0.27c0.4,0.55,0.28,1.32-0.27,1.72c-0.55,0.4-1.32,0.28-1.72-0.27
			C61.09,10.71,61.21,9.95,61.75,9.54L61.75,9.54z M52.59,78.06c-0.49,0-0.88,0.39-0.88,0.88s0.39,0.88,0.88,0.88
			c0.49,0,0.88-0.39,0.88-0.88S53.08,78.06,52.59,78.06L52.59,78.06z M85.21,79.83c-0.97,0-1.76,0.79-1.76,1.76
			c0,0.97,0.79,1.76,1.76,1.76c0.97,0,1.76-0.79,1.76-1.76C86.98,80.62,86.19,79.83,85.21,79.83L85.21,79.83z M17.51,73.2
			c0.34-0.34,0.34-0.9,0-1.25c-0.34-0.34-0.9-0.34-1.25,0c-0.34,0.34-0.34,0.9,0,1.25C16.61,73.55,17.16,73.55,17.51,73.2
			L17.51,73.2z M37.04,80.01c0.69-0.69,0.69-1.81,0-2.49c-0.69-0.69-1.81-0.69-2.49,0c-0.69,0.69-0.69,1.81,0,2.49
			C35.24,80.7,36.36,80.7,37.04,80.01L37.04,80.01z M97.94,34.25c-0.49,0-0.88,0.39-0.88,0.88c0,0.49,0.4,0.88,0.88,0.88
			c0.49,0,0.88-0.4,0.88-0.88C98.82,34.64,98.42,34.25,97.94,34.25L97.94,34.25z M95.64,22.51c-0.97,0-1.76,0.79-1.76,1.76
			c0,0.97,0.79,1.76,1.76,1.76c0.97,0,1.76-0.79,1.76-1.76C97.4,23.3,96.61,22.51,95.64,22.51L95.64,22.51z M30.89,17.36
			c0.55-0.4,1.32-0.28,1.72,0.27c0.4,0.55,0.28,1.32-0.27,1.72c-0.55,0.4-1.32,0.28-1.72-0.27C30.22,18.53,30.34,17.76,30.89,17.36
			L30.89,17.36z M84.42,16.36c-0.21,0.06-0.43,0.05-0.62,0l-1.1,2.19c0.31,0.22,0.54,0.54,0.65,0.93c0.24,0.9-0.29,1.82-1.19,2.06
			c-0.9,0.24-1.82-0.29-2.06-1.19c-0.24-0.9,0.29-1.82,1.19-2.06c0.28-0.08,0.57-0.07,0.84-0.01l1.13-2.26
			c-0.12-0.13-0.22-0.3-0.27-0.49c-0.17-0.62,0.2-1.26,0.82-1.43c0.62-0.17,1.26,0.2,1.43,0.82C85.41,15.56,85.04,16.19,84.42,16.36
			L84.42,16.36z M47.02,19.76c0.33-0.41,0.94-0.48,1.35-0.15c0.41,0.33,0.48,0.94,0.15,1.35c-0.33,0.41-0.94,0.48-1.35,0.15
			C46.76,20.78,46.69,20.17,47.02,19.76L47.02,19.76z M26.91,30.69c0.02-0.15,0.08-0.28,0.17-0.39l-1.18-1.43
			c-0.33,0.21-0.74,0.31-1.16,0.24c-0.92-0.14-1.55-1-1.41-1.93c0.14-0.92,1-1.55,1.93-1.41c0.92,0.14,1.55,1,1.41,1.93
			c-0.05,0.32-0.18,0.6-0.37,0.83l1.22,1.48c0.11-0.03,0.23-0.04,0.35-0.02c0.45,0.07,0.77,0.5,0.7,0.95
			c-0.07,0.45-0.5,0.77-0.95,0.7c-0.16-0.03-0.3-0.09-0.42-0.19l-5.08,2c0.01,0.09,0.01,0.18-0.01,0.28
			c-0.09,0.61-0.67,1.03-1.28,0.94c-0.61-0.09-1.03-0.67-0.94-1.28c0.09-0.61,0.67-1.03,1.28-0.94c0.33,0.05,0.61,0.25,0.78,0.51
			l4.98-1.96C26.9,30.9,26.89,30.79,26.91,30.69L26.91,30.69z M71.98,78.84c-0.19-0.05-0.38-0.05-0.55,0l-0.97-1.94
			c0.27-0.19,0.48-0.48,0.57-0.83c0.21-0.79-0.26-1.61-1.05-1.82c-0.79-0.21-1.61,0.26-1.82,1.05c-0.21,0.79,0.26,1.61,1.05,1.82
			c0.25,0.07,0.51,0.07,0.74,0.01l1,2c-0.11,0.12-0.19,0.26-0.24,0.43c-0.15,0.55,0.18,1.11,0.73,1.26
			c0.55,0.15,1.11-0.18,1.26-0.73C72.85,79.55,72.53,78.99,71.98,78.84z M58.77,19.22c0.73,0,1.36,0.43,1.65,1.05
			c1.33-0.22,2.68-0.33,4.04-0.33c2.46,0,4.86,0.36,7.13,1.04c0.37-0.66,1.08-1.11,1.89-1.11c1.19,0,2.16,0.97,2.16,2.16
			c0,1.19-0.97,2.16-2.16,2.16c-1.07,0-1.96-0.78-2.13-1.8c-2.2-0.67-4.51-1.03-6.89-1.03c-1.35,0-2.69,0.12-4,0.34
			c-0.02,0.05-0.04,0.11-0.07,0.16l9.86,7.06c0.24-0.21,0.56-0.34,0.91-0.34c0.58,0,1.07,0.35,1.28,0.86l7.9-1.73
			c0.12-0.74,0.76-1.31,1.54-1.31c0.86,0,1.55,0.7,1.55,1.55c0,0.23-0.05,0.44-0.14,0.64c1.52,1.76,2.81,3.75,3.8,5.93
			c0.24-0.09,0.51-0.15,0.79-0.15c1.13,0,2.06,0.87,2.17,1.97c3.93,1.29,7.24,3.83,9.52,7.12c0.03-0.01,0.05-0.01,0.08-0.02
			c1.11-0.23,2.2,0.47,2.43,1.58c0.23,1.11-0.47,2.2-1.58,2.43c-1.11,0.23-2.2-0.47-2.43-1.58c-0.12-0.58,0.01-1.16,0.33-1.61
			c-2.08-3.01-5.1-5.34-8.69-6.54c-0.39,0.6-1.06,1-1.83,1c-0.92,0-1.71-0.57-2.03-1.38l-7.86,1.33c-0.01,0.39-0.12,0.76-0.31,1.07
			l10.9,6.93c0.34-0.25,0.76-0.39,1.21-0.39c1.13,0,2.05,0.92,2.05,2.05c0,0.14-0.01,0.27-0.04,0.4l8.96,5.7
			c0.23-0.26,0.54-0.45,0.91-0.52c0.91-0.19,1.8,0.39,2,1.3c0.17,0.81-0.27,1.61-1.01,1.91c-1.05,6.47-5.42,11.9-11.39,14.33
			c0,0.04,0,0.08,0,0.12c0,1.12-0.91,2.04-2.04,2.04c-0.77,0-1.44-0.43-1.79-1.06c-0.26,0.04-0.51,0.09-0.77,0.12
			c-0.74,0.12-1.47,0.16-2.24,0.16h-8.33c-0.25,0.42-0.7,0.71-1.23,0.71c-0.78,0-1.42-0.64-1.42-1.42c0-0.53,0.29-1,0.73-1.24
			L72.23,56.4c-0.3,0-0.59-0.06-0.85-0.17l-9.26,14.93c0.17,0.24,0.27,0.53,0.27,0.84c0,0.8-0.65,1.44-1.44,1.44
			c-0.5,0-0.94-0.25-1.2-0.64h-8.73c-0.23,0.89-1.03,1.54-1.99,1.54c-0.96,0-1.76-0.66-1.99-1.54h-9.79
			c-0.22,1.17-1.25,2.06-2.49,2.06c-1.4,0-2.54-1.14-2.54-2.54c0-1.4,1.14-2.54,2.54-2.54c0.15,0,0.3,0.01,0.45,0.04l4.03-10.81
			c-0.69-0.31-1.26-0.84-1.6-1.5L21.61,65.1c0.01,0.04,0.01,0.07,0.02,0.11c0.06,0.44-0.05,0.86-0.26,1.21
			c1.33,1.56,2.99,2.82,4.87,3.69c0.44-0.28,1.02-0.27,1.45,0.07c0.56,0.43,0.66,1.22,0.23,1.78c-0.43,0.56-1.22,0.66-1.78,0.23
			c-0.26-0.2-0.42-0.48-0.48-0.78c-2.12-0.97-3.99-2.41-5.47-4.18c-0.04,0.01-0.09,0.02-0.13,0.02c-1,0.13-1.91-0.57-2.04-1.56
			c-0.06-0.46,0.06-0.9,0.3-1.25c-1.13-2.16-1.77-4.62-1.77-7.23c0-1.57,0.24-3.1,0.68-4.55c-0.75-0.53-1.15-1.48-0.93-2.44
			c0.29-1.27,1.55-2.07,2.82-1.79c0.04,0.01,0.08,0.02,0.12,0.03c1.73-2.56,4.22-4.6,7.18-5.77c0-1.11,0.89-2.01,1.99-2.04
			c0.14-1.29,0.45-2.53,0.91-3.69c-0.41-0.43-0.54-1.08-0.26-1.64c0.35-0.72,1.22-1.03,1.94-0.68c0.72,0.35,1.03,1.22,0.68,1.94
			c-0.2,0.42-0.58,0.7-1,0.79c-0.48,1.17-0.79,2.43-0.9,3.75c0.34,0.29,0.59,0.68,0.69,1.14l10.12,0.32
			c0.11-0.53,0.42-0.99,0.85-1.28l-4.51-8.85c-0.35,0.11-0.73,0.13-1.11,0.04c-1.16-0.26-1.89-1.41-1.63-2.57
			c0.26-1.16,1.41-1.89,2.57-1.63c1.16,0.26,1.88,1.41,1.63,2.57c-0.12,0.52-0.41,0.95-0.8,1.24l4.53,8.88
			c0.15-0.04,0.31-0.06,0.48-0.06c0.66,0,1.25,0.31,1.63,0.8l8.08-2.34c-0.02-0.19-0.03-0.39-0.03-0.59c0-1.27,0.43-2.43,1.15-3.36
			l-6.21-5.4c-0.2,0.11-0.43,0.17-0.67,0.17c-0.79,0-1.43-0.64-1.43-1.43c0-0.79,0.64-1.43,1.43-1.43c0.08,0,0.15,0.01,0.23,0.02
			c2.87-2.9,6.37-5.03,10.19-6.24l0-0.06C56.95,20.04,57.76,19.22,58.77,19.22L58.77,19.22z M82.2,29.46
			c-0.09,0.02-0.18,0.03-0.27,0.03l-4.51,7.58c0.22,0.24,0.39,0.52,0.49,0.84l7.81-1.32l0-0.06c0-0.38,0.1-0.74,0.27-1.06
			C85.03,33.25,83.74,31.23,82.2,29.46L82.2,29.46z M101.25,57.02c-0.27-0.14-0.5-0.36-0.66-0.63l-8.26,1.43
			c-0.01,0.11-0.03,0.21-0.07,0.32C92,58.86,91.21,59.25,90.47,59c-0.73-0.25-1.12-1.05-0.87-1.78c0.25-0.73,1.05-1.12,1.78-0.87
			c0.37,0.13,0.66,0.4,0.81,0.73l8.16-1.41c-0.02-0.21,0.01-0.41,0.06-0.6l-8.88-5.65c-0.37,0.57-1,0.94-1.73,0.94
			c-0.37,0-0.72-0.1-1.02-0.27l-4.54,6.13c0.75,0.71,1.22,1.71,1.22,2.83c0,1.22-0.56,2.31-1.44,3.02l4.51,7.56
			c0.22-0.08,0.46-0.13,0.71-0.13c0.57,0,1.09,0.24,1.46,0.62C96.21,67.9,100.24,62.93,101.25,57.02L101.25,57.02z M87.26,71.12
			c0.09-0.43,0.32-0.82,0.65-1.1l-4.5-7.53c-0.54,0.29-1.16,0.45-1.82,0.45c-0.38,0-0.75-0.05-1.1-0.16L76,71.21
			c0.04,0.06,0.09,0.12,0.12,0.18h8.33c0.68,0,1.35-0.04,2.02-0.15l0.02,0l0.02,0C86.75,71.21,87.01,71.17,87.26,71.12L87.26,71.12z
			 M59.65,71.39c0.23-0.49,0.73-0.82,1.3-0.82c0.21,0,0.4,0.04,0.58,0.12l9.21-14.84c-0.25-0.21-0.45-0.46-0.59-0.75l-15.84,2.34
			c0,0.06,0.01,0.11,0.01,0.17c0,1.28-1.01,2.32-2.27,2.38l-2.26,10.42c0.19,0.07,0.37,0.18,0.53,0.3l10.28-9.05
			c-0.16-0.32-0.2-0.71-0.07-1.08c0.25-0.73,1.05-1.12,1.78-0.87c0.73,0.25,1.12,1.05,0.87,1.78c-0.25,0.73-1.05,1.12-1.78,0.87
			c-0.11-0.04-0.21-0.09-0.31-0.15L50.8,71.26c0.03,0.04,0.05,0.09,0.07,0.13H59.65L59.65,71.39z M47.2,71.39
			c0.13-0.26,0.31-0.49,0.54-0.68l-5.86-11.66c-0.39,0.16-0.82,0.25-1.28,0.25c-0.22,0-0.44-0.02-0.64-0.06l-4.04,10.82
			c0.54,0.28,0.97,0.75,1.2,1.32H47.2L47.2,71.39z M19.51,63.65c0.02,0,0.05-0.01,0.08-0.01c0.7-0.09,1.36,0.23,1.73,0.77
			l16.05-7.58c-0.07-0.27-0.11-0.56-0.11-0.86c0-0.23,0.02-0.46,0.07-0.68L20.8,51.56c-0.35,0.93-1.25,1.53-2.23,1.52
			c-0.4,1.31-0.61,2.69-0.61,4.11C17.96,59.52,18.52,61.71,19.51,63.65L19.51,63.65z M20.42,49.22c0.36,0.44,0.57,1.01,0.54,1.61
			l16.61,3.75c0.14-0.3,0.32-0.58,0.54-0.82l-8.9-9.16c-0.23,0.09-0.48,0.14-0.75,0.14c-0.63,0-1.19-0.28-1.57-0.73
			C24.22,45.07,21.98,46.91,20.42,49.22L20.42,49.22z M47.86,28.24c0.06,0.16,0.1,0.34,0.1,0.52c0,0.28-0.08,0.53-0.21,0.75
			l6.16,5.36c0.92-0.9,2.16-1.48,3.54-1.56l0.81-10.53c-0.26-0.08-0.5-0.21-0.7-0.39C53.92,23.52,50.59,25.51,47.86,28.24
			L47.86,28.24z M80.42,28.45l-7.88,1.73c-0.05,0.34-0.23,0.64-0.48,0.85l3.15,5.41c0.18-0.05,0.38-0.08,0.57-0.08
			c0.37,0,0.73,0.09,1.04,0.26l4.34-7.3C80.82,29.13,80.55,28.82,80.42,28.45L80.42,28.45z M38.66,53.25
			c0.55-0.39,1.22-0.62,1.95-0.62c0.09,0,0.19,0,0.28,0.01l1.06-7.72c-0.71-0.24-1.25-0.85-1.38-1.61l-10.08-0.32
			c-0.07,0.47-0.3,0.88-0.63,1.19L38.66,53.25L38.66,53.25z M88.22,49.61c-0.08-0.09-0.14-0.19-0.2-0.3l-13.45,4.26
			c0.03,0.15,0.05,0.31,0.05,0.47c0,0.19-0.02,0.38-0.06,0.55l3.91,2.14c0.71-0.95,1.84-1.57,3.12-1.57c0.76,0,1.48,0.22,2.08,0.6
			L88.22,49.61L88.22,49.61z M87.78,48.6c-0.01-0.1-0.02-0.2-0.02-0.3c0-0.41,0.12-0.78,0.32-1.1L77.21,40.3
			c-0.34,0.28-0.76,0.46-1.22,0.5l-0.93,3.61c0.49,0.26,0.82,0.78,0.82,1.37c0,0.86-0.7,1.56-1.56,1.56c-0.86,0-1.56-0.7-1.56-1.56
			c0-0.86,0.7-1.56,1.56-1.56l0.01,0l0.9-3.48c-0.8-0.21-1.43-0.85-1.61-1.66l-10.39-0.22c-0.02,1.33-0.5,2.54-1.3,3.48l9.06,9.7
			c0.37-0.23,0.8-0.37,1.27-0.37c0.88,0,1.64,0.48,2.05,1.19L87.78,48.6L87.78,48.6z M51.3,59.89c-0.97-0.27-1.69-1.14-1.74-2.18
			l-5.7-0.95c-0.19,0.8-0.67,1.48-1.32,1.94l5.86,11.66c0.2-0.07,0.42-0.1,0.64-0.1l0.01,0L51.3,59.89L51.3,59.89z M70.11,30.86
			l-7.97,4.66c0.55,0.74,0.92,1.63,1.04,2.59l10.39,0.22c0.07-0.66,0.43-1.23,0.95-1.59l-3.16-5.41c-0.07,0.01-0.13,0.01-0.2,0.01
			C70.74,31.35,70.36,31.16,70.11,30.86L70.11,30.86z M61.65,34.94l8.15-4.77c-0.01-0.07-0.02-0.14-0.02-0.21
			c0-0.15,0.02-0.29,0.07-0.42l-9.91-7.09c-0.26,0.22-0.58,0.36-0.94,0.41L58.2,33.33C59.54,33.44,60.75,34.04,61.65,34.94
			L61.65,34.94z M74.93,70.68c0.16,0,0.32,0.04,0.46,0.09l4.41-8.27c-1.25-0.65-2.1-1.95-2.1-3.45c0-0.6,0.14-1.17,0.38-1.68
			l-3.81-2.08c-0.29,0.47-0.75,0.83-1.29,1L74.93,70.68L74.93,70.68z M61.4,42.88c-0.97,0.87-2.25,1.4-3.66,1.4
			c-0.43,0-0.84-0.05-1.24-0.14l-3.27,11.46c0.4,0.26,0.72,0.65,0.9,1.1l15.79-2.33c-0.02-0.11-0.02-0.22-0.02-0.34
			c0-0.57,0.2-1.09,0.53-1.49L61.4,42.88L61.4,42.88z M41.62,52.78c1.35,0.43,2.33,1.69,2.33,3.19l0,0.05l5.69,0.95
			c0.09-0.33,0.25-0.62,0.46-0.88l-6.71-11.23c-0.22,0.09-0.45,0.15-0.7,0.16L41.62,52.78L41.62,52.78z M50.66,55.58
			c0.37-0.23,0.8-0.37,1.27-0.37c0.21,0,0.41,0.03,0.61,0.08l3.25-11.37c-1.66-0.63-2.93-2.05-3.37-3.8l-7.86,2.28
			c0.05,0.18,0.08,0.37,0.08,0.57c0,0.58-0.24,1.11-0.63,1.48L50.66,55.58z"/>
	</g>
</g>
</svg>
